<?xml version="1.0" encoding="UTF-8"?>
<svg width="800px" height="800px" viewBox="0 0 800 800" version="1.1" xmlns="http://www.w3.org/2000/svg" xmlns:xlink="http://www.w3.org/1999/xlink">
    <!-- Generator: Sketch 46.2 (44496) - http://www.bohemiancoding.com/sketch -->
    <title>clock</title>
    <desc>Created with Sketch.</desc>
    <defs></defs>
    <g id="Page-1" stroke="none" stroke-width="1" fill="none" fill-rule="evenodd">
        <g id="Desktop-HD" transform="translate(-400.000000, -112.000000)">
            <g id="clock" transform="translate(400.000000, 112.000000)">
                <rect id="Rectangle" fill="#DCE3EB" x="0" y="0" width="800" height="800"></rect>
                <g id="moneyclock" transform="translate(207.000000, 345.000000)">
                    <g id="icons8-clock">
                        <g id="Group" fill-rule="nonzero">
                            <path d="M193,380.921053 C89.3793158,380.921053 5.07894737,296.620684 5.07894737,193 C5.07894737,89.3793158 89.3793158,5.07894737 193,5.07894737 C296.620684,5.07894737 380.921053,89.3793158 380.921053,193 C380.921053,296.620684 296.620684,380.921053 193,380.921053 Z" id="Shape" fill="#DFF0FE"></path>
                            <path d="M193,10.1578947 C293.817105,10.1578947 375.842105,92.1828947 375.842105,193 C375.842105,293.817105 293.817105,375.842105 193,375.842105 C92.1828947,375.842105 10.1578947,293.817105 10.1578947,193 C10.1578947,92.1828947 92.1828947,10.1578947 193,10.1578947 L193,10.1578947 Z M193,0 C86.4132105,0 0,86.4132105 0,193 C0,299.586789 86.4132105,386 193,386 C299.586789,386 386,299.586789 386,193 C386,86.4132105 299.586789,0 193,0 L193,0 Z" id="Shape" fill="#4788C7"></path>
                        </g>
                        <g id="Group" transform="translate(30.000000, 30.000000)" fill-rule="nonzero">
                            <path d="M162.5,319.921875 C75.6945312,319.921875 5.078125,249.305469 5.078125,162.5 C5.078125,75.6945312 75.6945312,5.078125 162.5,5.078125 C249.305469,5.078125 319.921875,75.6945312 319.921875,162.5 C319.921875,249.305469 249.305469,319.921875 162.5,319.921875 Z" id="Shape" fill="#FFFFFF"></path>
                            <path d="M162.5,10.15625 C246.502344,10.15625 314.84375,78.4976563 314.84375,162.5 C314.84375,246.502344 246.502344,314.84375 162.5,314.84375 C78.4976563,314.84375 10.15625,246.502344 10.15625,162.5 C10.15625,78.4976563 78.4976563,10.15625 162.5,10.15625 L162.5,10.15625 Z M162.5,0 C72.7492188,0 0,72.7492188 0,162.5 C0,252.250781 72.7492188,325 162.5,325 C252.250781,325 325,252.250781 325,162.5 C325,72.7492188 252.250781,0 162.5,0 L162.5,0 Z" id="Shape" fill="#4788C7"></path>
                        </g>
                        <polyline id="Shape" stroke="#4788C7" stroke-width="2" stroke-linecap="round" points="261 94 193 193.358542 244.212532 244"></polyline>
                        <circle id="Oval" fill="#4788C7" fill-rule="nonzero" cx="192" cy="192" r="15"></circle>
                    </g>
                    <g id="icons8-usd" transform="translate(179.000000, 280.000000)" fill-rule="nonzero" fill="#80EA9B">
                        <path d="M11.9637247,40.2503 C7.97581648,40.2503 4.31438581,38.8952512 1.76358911,37.4124236 L0,43.4774559 C2.35246921,45.0256586 6.61498474,46.1875536 10.7340942,46.3153323 L10.7340942,52 L15.951633,52 L15.951633,45.9260529 C23.143293,44.764158 27,39.9263958 27,34.4408252 C27,28.6996971 23.7291219,25.2140122 16.4093118,22.5039145 C10.8530907,20.3108749 8.49757035,18.8250757 8.49757035,16.1803532 C8.49757035,13.9873136 10.1330094,11.6635236 14.7097977,11.6635236 C19.1553848,11.6635236 22.0296079,13.1493228 23.6009719,13.8565632 L25.3676122,7.92228127 C23.2744943,6.88816504 20.4643463,5.92239557 16.3452367,5.79164524 L16.3452367,0 L10.984292,0 L10.984292,6.11852106 C4.38151204,7.28041602 0.457678834,11.5387165 0.457678834,17.0896623 C0.457678834,23.0893194 4.90326591,26.1857249 11.7684484,28.6372936 C16.6076393,30.3786502 18.8960335,32.2507572 18.8960335,35.1540088 C18.8929823,38.2533859 16.079783,40.2503 11.9637247,40.2503 Z" id="Shape"></path>
                    </g>
                    <g id="icons8-usd" transform="translate(179.000000, 49.000000)" fill-rule="nonzero" fill="#80EA9B">
                        <path d="M11.9637247,40.2503 C7.97581648,40.2503 4.31438581,38.8952512 1.76358911,37.4124236 L0,43.4774559 C2.35246921,45.0256586 6.61498474,46.1875536 10.7340942,46.3153323 L10.7340942,52 L15.951633,52 L15.951633,45.9260529 C23.143293,44.764158 27,39.9263958 27,34.4408252 C27,28.6996971 23.7291219,25.2140122 16.4093118,22.5039145 C10.8530907,20.3108749 8.49757035,18.8250757 8.49757035,16.1803532 C8.49757035,13.9873136 10.1330094,11.6635236 14.7097977,11.6635236 C19.1553848,11.6635236 22.0296079,13.1493228 23.6009719,13.8565632 L25.3676122,7.92228127 C23.2744943,6.88816504 20.4643463,5.92239557 16.3452367,5.79164524 L16.3452367,0 L10.984292,0 L10.984292,6.11852106 C4.38151204,7.28041602 0.457678834,11.5387165 0.457678834,17.0896623 C0.457678834,23.0893194 4.90326591,26.1857249 11.7684484,28.6372936 C16.6076393,30.3786502 18.8960335,32.2507572 18.8960335,35.1540088 C18.8929823,38.2533859 16.079783,40.2503 11.9637247,40.2503 Z" id="Shape"></path>
                    </g>
                    <g id="icons8-usd" transform="translate(306.000000, 167.000000)" fill-rule="nonzero" fill="#80EA9B">
                        <path d="M11.9637247,40.2503 C7.97581648,40.2503 4.31438581,38.8952512 1.76358911,37.4124236 L0,43.4774559 C2.35246921,45.0256586 6.61498474,46.1875536 10.7340942,46.3153323 L10.7340942,52 L15.951633,52 L15.951633,45.9260529 C23.143293,44.764158 27,39.9263958 27,34.4408252 C27,28.6996971 23.7291219,25.2140122 16.4093118,22.5039145 C10.8530907,20.3108749 8.49757035,18.8250757 8.49757035,16.1803532 C8.49757035,13.9873136 10.1330094,11.6635236 14.7097977,11.6635236 C19.1553848,11.6635236 22.0296079,13.1493228 23.6009719,13.8565632 L25.3676122,7.92228127 C23.2744943,6.88816504 20.4643463,5.92239557 16.3452367,5.79164524 L16.3452367,0 L10.984292,0 L10.984292,6.11852106 C4.38151204,7.28041602 0.457678834,11.5387165 0.457678834,17.0896623 C0.457678834,23.0893194 4.90326591,26.1857249 11.7684484,28.6372936 C16.6076393,30.3786502 18.8960335,32.2507572 18.8960335,35.1540088 C18.8929823,38.2533859 16.079783,40.2503 11.9637247,40.2503 Z" id="Shape"></path>
                    </g>
                    <g id="icons8-usd" transform="translate(52.000000, 167.000000)" fill-rule="nonzero" fill="#80EA9B">
                        <path d="M11.9637247,40.2503 C7.97581648,40.2503 4.31438581,38.8952512 1.76358911,37.4124236 L0,43.4774559 C2.35246921,45.0256586 6.61498474,46.1875536 10.7340942,46.3153323 L10.7340942,52 L15.951633,52 L15.951633,45.9260529 C23.143293,44.764158 27,39.9263958 27,34.4408252 C27,28.6996971 23.7291219,25.2140122 16.4093118,22.5039145 C10.8530907,20.3108749 8.49757035,18.8250757 8.49757035,16.1803532 C8.49757035,13.9873136 10.1330094,11.6635236 14.7097977,11.6635236 C19.1553848,11.6635236 22.0296079,13.1493228 23.6009719,13.8565632 L25.3676122,7.92228127 C23.2744943,6.88816504 20.4643463,5.92239557 16.3452367,5.79164524 L16.3452367,0 L10.984292,0 L10.984292,6.11852106 C4.38151204,7.28041602 0.457678834,11.5387165 0.457678834,17.0896623 C0.457678834,23.0893194 4.90326591,26.1857249 11.7684484,28.6372936 C16.6076393,30.3786502 18.8960335,32.2507572 18.8960335,35.1540088 C18.8929823,38.2533859 16.079783,40.2503 11.9637247,40.2503 Z" id="Shape"></path>
                    </g>
                </g>
            </g>
        </g>
    </g>
</svg>