
<svg  viewBox="0 0 800 800" version="1.1" xmlns="http://www.w3.org/2000/svg" xmlns:xlink="http://www.w3.org/1999/xlink">
    <defs></defs>
    <g id="Page-1" stroke="none" stroke-width="1" fill="none" fill-rule="evenodd">
        <g id="onespeed-blog">
            <rect id="Rectangle" fill="#ECE374" x="0" y="0" width="800" height="800"></rect>
            <g id="wings" transform="translate(69.000000, 263.000000)" fill-rule="nonzero" fill="#3B3737">
                <g id="Group" transform="translate(331.500000, 137.000000) scale(-1, 1) rotate(-180.000000) translate(-331.500000, -137.000000) ">
                    <path d="M7.62798249,270.839101 C-2.3219925,263.019704 -2.48716208,249.37843 7.46281291,240.39499 C10.6134725,237.566485 19.7342829,228.582878 27.6939312,220.597117 C35.48841,212.612022 44.2772229,205.125683 46.9307154,203.794945 C52.5688687,200.966606 67.4938312,197.639344 96.6805903,192.648452 C107.625729,190.651762 121.555528,187.3245 127.856847,185.162113 C133.992996,183.165423 138.967984,181.834851 138.967984,182.500137 C138.967984,184.496827 125.038185,197.140588 119.897199,199.801732 C117.077707,201.132969 101.821577,206.290391 85.9014507,210.948391 C52.2377004,221.096706 44.1112241,224.922724 30.8445908,237.566485 C13.266965,254.369322 20.8946158,261.522602 38.971067,245.385882 C50.0813749,235.404097 67.8258287,227.085943 93.363932,219.765302 C101.489579,217.436385 115.751376,213.443837 124.706187,210.781862 C133.660999,208.119886 141.952645,205.957498 142.947808,205.957498 C145.767299,205.957498 129.350007,217.269855 118.570867,222.760336 C113.263882,225.422312 103.645904,229.581389 97.0125878,232.076835 C79.1021353,238.3983 64.6751691,246.217698 51.0765383,256.698239 C29.5182591,273.334548 16.0856271,277.659988 7.62798249,270.839101 Z" id="Shape"></path>
                    <path d="M632.155741,270.007286 C627.67792,267.678203 619.054277,261.855495 612.918128,257.031132 C599.818322,246.549758 585.390527,238.731192 563.003083,230.079979 C548.24329,224.423801 524.032348,210.615166 521.378026,206.290391 C520.880859,205.292046 526.187844,206.290391 533.153158,208.619308 C540.283642,210.781695 550.730784,213.77673 556.202938,215.107302 C570.133567,218.434563 598.82233,228.582878 608.939133,233.7403 C613.582123,236.069217 621.209773,241.558866 626.019591,246.051002 C634.311237,253.869568 640.115389,256.199316 642.270885,252.538996 C645.255546,247.714633 627.345923,229.74692 611.591796,221.761825 C607.445973,219.765135 592.189013,214.442016 577.596048,210.116409 C563.003083,205.790803 548.410118,200.96644 545.258629,199.302809 C540.283642,196.807362 525.358679,182.499971 525.358679,180.337583 C525.358679,180.004525 529.669672,181.501626 534.976657,183.664845 C540.118472,185.660703 553.385106,189.154494 564.329415,190.984655 C617.727945,200.633381 622.370935,202.297012 634.973574,218.434563 C639.451394,224.090742 646.416708,231.577081 650.562531,235.070872 C663.16517,245.385716 665.984661,255.034442 659.683342,265.514984 C653.87919,274.998179 644.923549,276.49528 632.155741,270.007286 Z" id="Shape"></path>
                    <path d="M18.4071221,206.622784 C15.7544587,199.636034 24.3772729,183.665012 35.6544087,174.681571 C52.7348674,161.205829 70.4793212,153.553127 92.7007661,150.225865 C104.475069,148.395705 115.08821,145.568032 126.033348,141.075896 C143.610974,133.75592 147.25963,133.090634 147.25963,137.083182 C147.25963,145.068277 128.354843,154.717835 107.127732,157.712038 C100.660414,158.710383 94.8562624,159.708727 94.1930965,160.207484 C93.363932,160.70624 86.8966141,162.037644 79.7653012,163.368216 C62.8508412,166.363251 48.5890445,173.017774 45.2723862,179.505768 L42.6188937,184.330298 L47.9258787,184.330298 C50.9105395,184.330298 58.7050183,181.668322 65.3383349,178.34106 C72.6348174,174.681571 81.5896291,171.853066 88.720942,170.854721 C94.8562624,169.856376 108.288894,166.529115 118.404868,163.201853 C128.354843,160.041121 138.470817,157.712204 140.792312,158.045263 C144.606137,158.544019 144.440139,158.877078 137.309655,166.030358 C129.847174,173.683226 120.726363,177.675774 111.439554,177.675774 C106.464567,177.675774 72.8008162,185.993928 60.1973487,190.319535 C56.3835233,191.483577 48.0918774,195.642655 41.7897291,199.302975 C27.1967641,207.787492 19.7342829,210.116576 18.4071221,206.622784 Z" id="Shape"></path>
                    <path d="M631.491746,202.963129 C626.516758,200.301154 619.054277,196.308606 614.908454,193.978857 C606.616808,189.154494 567.646073,178.340894 553.715445,177.010322 C541.941971,175.845447 531.162831,170.355798 526.022674,162.86946 C520.383692,154.717835 522.871186,154.384942 544.926632,161.538222 C554.711437,164.699786 568.310068,168.192746 575.108554,169.19109 C582.571036,170.355965 592.189013,173.350168 599.154327,176.677429 C614.07929,183.997239 621.541771,185.660869 621.541771,181.834851 C621.541771,174.515042 603.30015,164.366727 585.887694,161.871281 C581.244704,161.205995 573.947392,159.708894 569.469572,158.37749 C564.99341,157.046918 558.85726,156.048573 555.872599,156.048573 C541.776801,156.048573 518.725363,143.072585 518.725363,135.253188 C518.725363,131.427169 522.706016,132.258985 539.786475,139.412265 C550.565614,143.904401 561.012756,146.898604 571.791896,148.395705 C580.580709,149.727109 592.023843,152.554782 597.330828,154.384942 C608.772305,158.710549 629.668247,172.518352 635.802738,179.838162 C645.090377,190.818291 649.069372,206.124028 643.10005,207.28807 C641.60689,207.4546 636.466733,205.62444 631.491746,202.963129 Z" id="Shape"></path>
                    <path d="M151.73745,199.801732 C151.073455,199.302975 150.576288,196.47447 150.576288,193.813326 C150.576288,181.834851 166.993581,170.522494 187.722696,167.860519 C206.793481,165.697299 207.291477,159.375835 188.385861,159.375835 C178.270717,159.375835 174.954059,160.20765 162.681759,166.030358 L148.585961,172.684882 L149.747124,168.027048 C152.234617,158.045263 169.813072,145.401502 184.240039,143.404812 C198.335836,141.408954 213.095629,149.060991 217.904618,160.540709 C223.045604,172.851411 220.392112,175.679084 196.843506,182.001381 C179.43105,186.825744 173.958895,189.32119 165.501251,196.142243 C160.029096,200.800077 154.058945,202.297178 151.73745,199.801732 Z" id="Shape"></path>
                    <path d="M499.489408,195.809184 C490.368597,188.489375 486.553114,186.825744 468.810318,181.834851 C447.914376,175.845614 445.094884,174.015454 446.256047,166.695644 C450.401869,140.909366 483.568453,133.756086 506.951889,153.553127 C512.092046,158.045263 518.228196,168.692334 516.569866,170.522494 C516.072699,170.854721 511.428051,169.024561 506.122724,166.363417 C490.865764,158.710549 484.894784,157.213447 473.950475,158.544019 C466.985161,159.375835 464.0005,160.37418 464.0005,162.037811 C464.0005,165.032013 465.49366,165.697299 479.589458,167.52746 C496.005921,169.856376 507.449056,175.845614 512.257216,184.995583 C515.573874,191.31788 515.740702,192.981511 514.082373,196.640999 C511.594879,202.297178 507.282228,202.131314 499.489408,195.809184 Z" id="Shape"></path>
                    <path d="M222.713607,167.693989 C221.221276,159.042776 223.045604,151.39074 227.025428,149.22752 C228.849756,148.229175 236.809405,146.898604 244.603883,146.066788 C268.814826,143.571342 270.971151,139.578794 260.026013,116.121433 C255.217024,105.806589 253.392696,99.8181834 253.392696,93.9954754 C253.392696,81.5182441 261.684342,68.374895 271.468318,65.3806922 L275.448143,64.2158179 L271.13715,69.8728282 C259.362847,85.3442623 258.864851,95.491745 269.146823,116.787551 C284.734952,149.060991 280.091962,161.372525 251.2372,164.366727 C237.970567,165.697299 226.85943,169.690679 226.85943,173.01794 C226.85943,173.683226 226.196264,174.348512 225.367099,174.348512 C224.537935,174.348512 223.376773,171.354143 222.713607,167.693989 Z" id="Shape"></path>
                    <path d="M435.311737,169.024561 C431.995079,166.529115 426.688094,165.198543 416.572949,164.200198 C408.94364,163.368383 400.486825,161.704752 397.832503,160.37418 C386.556197,154.384942 386.723025,138.746979 398.331329,115.289617 C403.968653,103.644202 405.958979,97.8214936 405.958979,91.9987857 C405.958979,83.3475726 402.477152,73.864544 397.335336,68.374895 C393.024344,63.7170613 394.185506,62.0534305 399.82283,64.7145744 C407.120142,68.0418361 413.089463,78.5240413 413.918628,89.3376418 C414.582623,97.9871913 413.918628,100.649999 407.782478,113.625987 C400.651994,128.931723 399.325663,137.582104 403.471486,141.075896 C404.797817,142.24077 413.421461,144.070098 422.542271,145.234973 C431.497912,146.565545 439.789558,147.896948 440.618722,148.395705 C444.26572,150.724622 444.764545,172.851411 441.115889,172.684882 C440.451894,172.684882 437.799231,171.021251 435.311737,169.024561 Z" id="Shape"></path>
                    <path d="M43.7800558,155.54965 C42.2877254,149.89264 42.6188937,142.905889 44.6092204,135.918307 C51.0765383,114.623333 77.7758037,102.646522 126.364517,99.3192605 C154.058945,97.4882684 156.048443,97.8213273 154.390114,104.641548 C152.566615,111.296072 149.581125,111.962189 123.379856,111.463433 C101.32358,110.964676 96.846589,111.296072 87.3937811,114.457636 C66.8306653,121.278023 53.564032,131.260474 50.2473737,142.572997 C49.2522104,146.066788 50.2473737,145.733729 59.7001816,138.746979 C65.6695033,134.587902 75.2883099,128.931723 81.092462,126.103218 C90.7104395,121.611082 94.525094,120.946628 116.414542,119.448695 C141.455478,117.785064 147.25963,118.616879 147.25963,123.607772 C147.25963,127.766849 141.12348,129.43048 118.736037,131.094111 C106.630565,132.092289 94.0270978,133.589557 90.8764382,134.754265 C83.0819595,137.249711 64.6751691,146.565378 53.7300308,153.552961 C44.9403887,159.209305 44.7752191,159.209305 43.7800558,155.54965 Z" id="Shape"></path>
                    <path d="M611.591796,151.556437 C606.616808,148.395705 595.837669,142.406468 587.546023,138.41392 C572.953058,131.26064 572.123893,131.094111 549.072455,129.596177 C520.051694,127.601151 513.253208,124.772646 522.539188,118.782577 C525.523849,116.620189 530.168497,116.454492 550.897612,117.785064 C573.615395,119.115636 576.434886,119.614392 586.052863,124.439587 C591.857016,127.268092 600.148661,132.424682 604.461312,135.918474 C616.234786,145.068443 616.898781,145.401502 614.908454,140.077551 C609.933467,127.268092 603.797317,122.2772 582.571036,113.625987 C571.459898,109.133851 569.6364,108.968153 542.771136,108.800792 L514.744709,108.635094 L513.08638,103.97726 C509.93655,95.3260474 512.756041,94.6599296 542.771136,97.1553758 C580.580709,100.151242 601.973818,107.47022 613.747292,121.278023 C620.547437,129.097421 623.697267,141.408954 621.873768,151.39074 L620.712606,157.545675 L611.591796,151.556437 Z" id="Shape"></path>
                    <path d="M155.551276,140.576973 C155.551276,139.745157 156.877607,136.916652 158.535936,134.088147 C166.662413,120.114646 198.170667,116.787384 211.4373,128.598498 L216.08029,132.591046 L206.130315,132.757575 C192.531684,132.924104 175.451226,135.419551 164.672086,139.079039 C159.697099,140.909366 155.551276,141.574652 155.551276,140.576973 Z" id="Shape"></path>
                    <path d="M500.483742,137.415575 C490.698936,134.088313 459.025513,130.428825 453.885356,131.925926 C447.914376,133.922616 450.733867,129.596177 458.693515,124.938344 C465.326832,120.946628 468.311493,120.28051 478.925463,120.28051 C488.378271,120.28051 493.021261,121.112325 497.996248,123.773469 C504.297567,127.100731 511.428051,136.085003 510.101719,139.245735 C509.93655,139.911021 505.458729,139.245735 500.483742,137.415575 Z" id="Shape"></path>
                    <path d="M204.803983,110.631617 C192.034517,102.313463 191.53735,102.146102 175.783223,101.314287 L159.697099,100.31694 L164.672086,96.4909217 C168.65191,93.3293576 170.973405,92.6649035 175.451226,93.4967189 C191.371351,96.3235604 195.351176,96.4909217 195.351176,94.8272908 C195.351176,92.1644833 191.039354,90.1694572 176.446389,86.5091366 C169.315076,84.6781445 163.013757,82.6831184 162.51659,82.0170006 C161.852595,81.3508828 163.345754,79.1884954 165.998418,77.1918057 C168.817909,74.8635543 170.476238,72.0352155 170.476238,69.2067104 C170.476238,59.8910431 179.43105,59.7236818 197.838669,69.0410128 C209.114976,74.8637207 226.85943,92.8306011 226.85943,98.653309 C226.85943,103.644202 226.196264,103.478504 215.251126,94.4942319 C198.335836,80.6864287 185.898368,74.6963594 178.767884,77.0261081 C173.129731,78.8554366 175.119228,82.6831184 182.41654,84.6781445 C193.195679,87.5066497 200.82333,91.9987857 206.627482,98.653309 C211.60247,104.310319 219.396948,117.619366 218.235786,118.451182 C217.904618,118.782577 211.934467,115.123753 204.803983,110.631617 Z" id="Shape"></path>
                    <path d="M449.075538,115.62251 C449.075538,111.629131 458.361518,98.6531427 465.823999,92.3316782 C470.301819,88.50566 476.935136,84.8453394 482.739288,83.1817086 C493.353258,80.0201445 495.176757,75.6953698 486.055946,74.8635543 C479.25746,74.1974366 467.981154,80.0201445 453.38653,91.8329217 C447.085211,96.9896782 441.613057,101.148755 441.281059,101.148755 C440.949062,101.148755 440.783892,99.1520656 440.783892,96.8239806 C440.783892,93.6624165 443.935381,89.3376418 452.060199,81.3508828 C464.497667,68.8736515 479.090632,60.7228585 489.704602,60.5554973 C496.005921,60.3897996 496.337919,60.5554973 496.835086,66.04681 C497.167084,69.7054669 498.825413,72.867031 501.478076,75.0294183 C506.951889,79.3558567 505.29356,80.6864287 489.539433,84.6781445 C477.267134,87.6740109 470.301819,91.5000291 472.624144,93.8281141 C473.28648,94.3285343 478.925463,93.8281141 485.39361,92.8306011 C495.673924,90.8339114 497.499081,91.0012726 501.147737,93.4967189 C508.111393,97.9871913 506.122724,99.4851245 493.518428,99.4851245 C478.925463,99.6508221 472.956141,101.647512 459.35751,110.797481 C453.221361,115.123753 449.075538,116.953248 449.075538,115.62251 Z" id="Shape"></path>
                    <path d="M72.8008162,98.8190067 C68.6549932,93.9954754 76.4486428,79.1884954 84.7402886,76.1942927 C87.8917774,75.0294183 102.650741,73.864544 121.22353,73.5331488 C138.304818,73.1999235 153.063782,72.5339721 153.892946,72.0352155 C154.556112,71.536459 156.546439,72.3682744 158.038769,73.864544 C160.029096,75.8612338 160.194266,77.0261081 158.701935,78.8554366 C157.209605,80.6862623 151.073455,81.1851852 131.671502,81.1851852 C111.605553,81.1851852 104.30907,81.851303 95.0222611,84.5124469 C83.9111241,87.6740109 77.4438062,91.6657268 79.7653012,93.8281141 C80.4292961,94.4942319 90.7104395,93.3293576 102.81674,91.5000291 C132.831834,86.6748342 153.063782,85.1783983 154.722111,87.8397086 C157.043606,91.5000291 152.234617,92.3318446 125.867349,93.3293576 C103.479906,94.161173 87.3937811,96.4909217 77.4438062,100.31694 C75.9514757,100.815696 73.9611491,100.151076 72.8008162,98.8190067 Z" id="Shape"></path>
                    <path d="M579.254377,95.1601834 C574.27939,93.6622502 559.519597,92.1643169 542.439138,91.3325015 C526.685011,90.6680474 513.418378,89.6688707 512.756041,89.1701141 C512.257216,88.50566 512.257216,87.1734244 512.921211,86.0102137 C515.076707,82.682952 556.866933,86.1759114 583.068203,91.9986193 C585.390527,92.6647371 586.716858,92.1643169 586.716858,90.5006861 C586.716858,86.6746679 582.903033,84.6779781 569.304402,81.0193212 C558.193265,78.190816 553.550275,77.8577571 534.644659,78.6895726 C516.735036,79.6870856 512.424044,79.3556903 509.604552,77.3590006 C507.117059,75.3623109 506.785061,74.3647978 508.44339,72.5338057 C510.930884,69.3739053 570.962731,69.8726618 580.912706,73.1999235 C588.375188,75.6953698 595.340502,85.6771548 594.676507,92.8304347 C594.01417,97.9871913 590.530684,98.4874451 579.254377,95.1601834 Z" id="Shape"></path>
                    <path d="M217.406622,76.6930492 C212.100466,71.3690978 203.310824,64.7145744 197.838669,61.7203716 L188.054693,56.5637814 L192.366515,54.5670917 C196.014341,52.7377632 197.672671,53.0691585 203.476823,56.3964202 C207.125478,58.3931099 210.773305,59.7236818 211.271301,59.0592277 C213.095629,57.2282356 207.291477,49.7418968 201.984492,47.0807529 C196.512338,44.2522477 196.677507,41.2580449 202.150491,41.2580449 C207.456647,41.2580449 216.909455,46.9150553 229.180925,57.3955968 C243.442721,69.3740716 248.085711,75.5281749 245.433048,78.1909824 C244.105887,79.5215543 241.618393,78.6897389 235.648243,74.8637207 C226.196264,68.7079539 223.542771,69.8728282 226.693431,78.8554366 C227.854593,82.0170006 228.517759,85.1785647 228.020592,85.5099599 C227.522596,86.0102137 222.879606,82.0170006 217.406622,76.6930492 Z" id="Shape"></path>
                    <path d="M441.281059,76.1942927 C442.277052,72.5339721 442.607391,69.2067104 441.945054,68.5422562 C441.447887,67.8761384 437.302064,69.8728282 432.824244,72.7013333 C423.039438,78.8554366 422.542271,79.0227978 422.542271,73.864544 C422.542271,71.0377025 425.69376,67.044323 432.989413,60.3897996 C451.728201,43.2547347 464.332498,36.1014548 469.969822,39.2613552 C472.457316,40.7592884 472.292146,41.2580449 467.814326,43.5877936 C461.181009,46.9150553 455.044859,54.5670917 457.202014,56.7294791 C458.196348,57.7286557 460.351844,57.0625379 463.336505,54.7327893 C467.814326,51.23983 476.272799,50.0749557 478.096298,52.7377632 C478.593465,53.5695786 474.77964,56.7294791 469.472655,59.7236818 C464.332498,62.7195483 456.206022,69.0410128 451.397862,74.0319053 C446.588044,78.8554366 441.945054,82.848816 441.115889,82.848816 C440.286725,82.848816 440.286725,80.0203109 441.281059,76.1942927 Z" id="Shape"></path>
                    <path d="M99.6652511,68.374895 C89.0521103,67.044323 88.720942,60.5554973 98.8360865,54.2340328 C106.630565,49.4105015 122.881859,49.2431403 145.104134,53.5695786 C161.687425,56.8968403 167.656747,59.7236818 164.506087,62.8852459 C163.013757,64.3831791 159.697099,63.882759 151.239454,61.2216151 C144.938135,59.3922866 132.666665,57.2282356 124.043022,56.7294791 C110.610389,55.8976636 107.956897,56.2307225 105.967399,58.5604712 C104.640239,60.0567407 104.143072,61.8877328 104.806237,62.552187 C105.469403,63.2183048 114.756212,64.0501202 125.204184,64.5488767 C138.635986,65.0476333 144.772136,66.04681 145.269303,67.5430795 C145.767299,69.0410128 141.12348,69.5397693 125.369353,69.2067104 C114.259045,69.2067104 102.650741,68.7079539 99.6652511,68.374895 Z" id="Shape"></path>
                    <path d="M248.085711,63.3840024 C240.126063,54.401394 234.985077,49.5761991 229.844091,46.5819964 C227.191427,45.0840631 225.367099,43.0873734 225.698268,42.0898604 C226.030265,41.2580449 230.673255,38.0964809 235.98024,35.2696393 C246.262213,29.612629 249.910039,24.9547954 250.076038,17.4684566 L250.076038,12.810623 L254.885027,16.1378846 C260.192012,19.9639029 267.654493,30.7775033 266.162163,32.4411342 C265.498168,32.9398907 262.845504,31.4419575 260.026013,28.9465112 C254.885027,24.6217365 251.734367,23.4568622 251.734367,25.9523084 C251.734367,26.6184262 256.212188,32.1080753 261.684342,38.2638421 C273.292646,51.23983 274.950975,55.2332095 264.171836,44.5853066 C260.192012,40.5919271 256.377357,37.7650856 255.88019,38.2638421 C255.217024,38.7625987 257.206522,43.4204323 260.026013,48.5786861 C263.010674,53.7352763 264.835002,57.8943534 264.171836,57.8943534 C263.50867,57.8943534 260.026013,55.2332095 256.212188,52.0716454 C244.437885,41.9241627 242.613557,44.5853066 252.397533,57.7286557 C256.709355,63.5513637 258.035686,69.5397693 255.051026,69.5397693 C254.221861,69.5397693 251.071201,66.7112641 248.085711,63.3840024 Z" id="Shape"></path>
                    <path d="M410.933967,65.5463898 C410.933967,64.2158179 413.58663,59.3922866 416.903289,54.5670917 C420.054777,49.909258 422.542271,45.2514244 422.210274,44.419609 C421.878276,43.4204323 417.732453,45.7501809 412.924294,49.5761991 C408.281304,53.4022174 404.30065,55.8976636 404.30065,55.2332095 C404.30065,54.5670917 406.622974,50.0749557 409.275638,45.0840631 C412.095129,40.2605319 414.250625,35.7683959 414.250625,35.2696393 C414.250625,34.6035216 410.933967,37.2646655 406.788144,41.0923473 C399.82283,47.5795094 397.667334,48.9100814 397.667334,47.0807529 C397.667334,46.747694 402.145154,41.4237426 407.617309,35.2696393 C420.883942,20.628357 421.049112,17.8015155 408.114476,27.6159393 C405.129815,29.7783267 402.642321,31.1105622 402.642321,30.6101421 C402.642321,27.7833005 407.949306,19.9639029 413.256291,14.8056491 L419.225613,8.98294111 L419.225613,14.8056491 C419.225613,22.792408 422.707441,26.9514851 434.150575,33.1055883 C443.271386,37.9307832 446.588044,41.2580449 442.442221,41.2580449 C441.447887,41.2580449 434.647742,47.2464505 427.352089,54.5670917 C413.918628,67.8761384 410.933967,69.8726618 410.933967,65.5463898 Z" id="Shape"></path>
                    <path d="M522.042021,64.8817693 C522.042021,62.5520206 530.665664,61.2214487 547.082128,61.2214487 C562.339088,61.2214487 566.651739,59.3921202 561.012756,55.0656818 C559.189258,53.9008075 554.876607,52.9032945 551.227951,52.9032945 C543.103133,52.9032945 519.719697,56.896674 513.253208,59.3921202 C506.785061,61.8875665 502.142071,61.7202052 502.142071,58.8917001 C502.142071,55.2330431 517.896198,50.7409071 540.118472,48.0780996 C557.530928,45.9157122 566.651739,47.9124019 572.78623,55.0656818 C576.601714,59.5578179 576.766883,60.2239356 574.27939,62.7193819 C572.123893,64.8817693 566.816908,65.5462234 546.916958,65.8792823 C531.659998,66.3782052 522.042021,65.8794487 522.042021,64.8817693 Z" id="Shape"></path>
                    <path d="M155.551276,48.4113248 C149.581125,46.0832398 140.626313,43.9191888 135.651326,43.7534912 C119.7312,43.0873734 119.068034,42.9216758 119.068034,40.5919271 C119.068034,35.9340935 126.033348,32.9398907 136.646489,32.9398907 C149.083958,32.9398907 159.697099,36.1014548 171.305403,43.0873734 C178.270717,47.2464505 179.929046,49.0774426 178.435886,50.7410735 C175.783223,54.0681688 167.656747,53.2363534 155.551276,48.4113248 Z" id="Shape"></path>
                    <path d="M489.704602,47.7468707 C488.211443,45.5828197 492.192096,42.5886169 505.126732,36.1014548 C518.061368,29.4469314 537.464151,27.4502417 544.429465,31.9423777 C553.053108,37.5977243 548.410118,41.2580449 532.489163,41.2580449 C527.349006,41.2580449 519.389358,42.9216758 512.756041,45.417122 C501.147737,49.7418968 491.528101,50.7409071 489.704602,47.7468707 Z" id="Shape"></path>
                    <path d="M165.501251,33.6060085 C149.415126,21.4601724 144.274969,16.4692799 141.289479,10.9796308 C137.806822,4.32510747 140.129146,5.15692289 151.405453,14.6399514 C160.029096,21.7932313 165.501251,24.7874341 165.501251,22.1262902 C165.501251,21.7932313 163.676923,18.6333309 161.355428,15.3060692 C157.541602,9.64905889 155.883273,2.99453552 158.204768,2.99453552 C161.687425,2.99453552 193.692846,32.4411342 193.692846,35.6010346 C193.692846,38.7625987 187.05953,42.9216758 182.084542,42.9216758 C179.597049,42.9216758 172.963732,39.2613552 165.501251,33.6060085 Z" id="Shape"></path>
                    <path d="M479.25746,38.596901 C477.267134,37.2646655 475.608804,34.7692192 475.608804,33.1055883 C475.608804,28.4477547 509.107385,-2.32941591 511.428051,0.166030358 C512.921211,1.49660231 508.940557,12.4775641 506.122724,14.6399514 C503.468403,16.9697001 502.971236,19.630844 505.29356,19.630844 C506.122724,19.630844 511.428051,15.9705234 517.067034,11.3126897 C522.706016,6.82055373 527.681004,2.99453552 528.011343,2.99453552 C530.665664,2.99453552 527.514176,9.15030237 522.374019,14.3068925 C513.253208,23.4568622 489.040607,41.2580449 485.890777,41.2580449 C484.232448,41.2580449 481.247787,40.0931706 479.25746,38.596901 Z" id="Shape"></path>
                </g>
            </g>
            <text id="JS" font-family="DINAlternate-Bold, DIN Alternate" font-size="120" font-weight="bold" fill="#000000">
                <tspan x="327.996094" y="580">JS</tspan>
            </text>
        </g>
    </g>
</svg>
